<?xml version="1.0" encoding="UTF-8"?>
<svg id="_레이어_1" data-name="레이어 1" xmlns="http://www.w3.org/2000/svg" viewBox="0 0 512 512">
  <defs>
    <style>
      .cls-1 {
        fill: #000;
      }

      .cls-1, .cls-2 {
        stroke-width: 0px;
      }

      .cls-2 {
        fill: #fff;
      }
    </style>
  </defs>
  <rect class="cls-2" width="512" height="512" rx="60" ry="60"/>
  <g>
    <path class="cls-1" d="M138.28,301.55c2.36-3.79,4.33-7.9,5.84-12.23,1.5-4.3,2.63-8.83,3.37-13.46.73-4.61,1.13-9.26,1.19-13.84v-10.65c-.06-4.5-.46-9.13-1.19-13.78-.73-4.66-1.87-9.2-3.37-13.5-1.51-4.32-3.47-8.44-5.84-12.23-2.4-3.84-5.29-7.22-8.62-10.05-3.34-2.85-7.22-5.13-11.54-6.78-4.33-1.66-9.25-2.5-14.62-2.5s-10.29.84-14.62,2.5c-4.32,1.65-8.21,3.95-11.55,6.83-3.32,2.86-6.21,6.26-8.57,10.1-2.33,3.78-4.29,7.89-5.83,12.21-1.53,4.3-2.68,8.84-3.41,13.47-.73,4.61-1.13,9.24-1.19,13.76v10.65c.06,4.5.46,9.11,1.19,13.7.73,4.61,1.88,9.13,3.41,13.43,1.54,4.33,3.53,8.44,5.92,12.23,2.42,3.83,5.33,7.21,8.65,10.04,3.34,2.84,7.2,5.12,11.49,6.78,4.3,1.66,9.21,2.5,14.58,2.5,3.75,0,7.33-.43,10.64-1.29l24.47,20.74,13.47-12.83-20.78-17.3c2.62-2.48,4.93-5.32,6.9-8.47ZM127.26,280.79c-.77,3.08-1.8,6.03-3.07,8.78-1.23,2.67-2.82,5.05-4.71,7.07-1.86,1.98-4.12,3.59-6.72,4.78-2.57,1.17-5.66,1.77-9.17,1.77s-6.52-.59-9.09-1.77c-2.59-1.18-4.85-2.8-6.71-4.81-1.9-2.05-3.5-4.45-4.76-7.13-1.3-2.75-2.36-5.7-3.15-8.78-.8-3.1-1.38-6.29-1.73-9.47-.35-3.2-.53-6.3-.53-9.2v-10.79c0-2.9.18-6,.53-9.2.35-3.18.93-6.35,1.73-9.42.8-3.05,1.86-5.99,3.15-8.74,1.26-2.67,2.86-5.06,4.76-7.08,1.86-1.99,4.11-3.6,6.68-4.78,2.55-1.17,5.59-1.77,9.04-1.77s6.61.58,9.19,1.74c2.59,1.16,4.85,2.75,6.7,4.73,1.9,2.02,3.5,4.41,4.76,7.08,1.29,2.75,2.34,5.68,3.11,8.73.77,3.07,1.31,6.24,1.61,9.41.3,3.24.48,6.39.53,9.32v10.76c-.05,2.97-.23,6.12-.53,9.36-.29,3.18-.83,6.36-1.61,9.45Z"/>
    <path class="cls-1" d="M236.17,210.55c-4.74-5.08-10.62-9.1-17.47-11.94-6.82-2.82-14.65-4.31-23.3-4.43h-29.98v124.87h29.99c8.63-.06,16.46-1.52,23.29-4.34,6.85-2.84,12.73-6.86,17.47-11.94,4.73-5.08,8.4-11.23,10.88-18.3,2.47-7.01,3.75-14.87,3.81-23.37v-8.89c-.06-8.49-1.34-16.34-3.81-23.36-2.49-7.06-6.15-13.22-10.88-18.3ZM231.5,252.05v9.04c-.05,5.93-.82,11.5-2.29,16.55-1.44,4.98-3.67,9.35-6.61,13-2.92,3.62-6.66,6.52-11.12,8.62-4.48,2.11-9.89,3.2-16.08,3.25h-10.37v-91.71h10.33c6.22.11,11.64,1.22,16.12,3.3,4.46,2.07,8.18,4.94,11.07,8.53,2.92,3.62,5.14,7.97,6.61,12.93,1.49,5.03,2.27,10.58,2.32,16.49Z"/>
    <polygon class="cls-1" points="269.03 211.55 297.33 211.55 297.33 301.77 269.03 301.77 269.03 319.05 346.08 319.05 346.08 301.77 317.11 301.77 317.11 211.55 346.08 211.55 346.08 194.19 269.03 194.19 269.03 211.55"/>
    <path class="cls-1" d="M452.52,236.39h0c-.71-4.53-1.83-8.95-3.33-13.15-1.51-4.21-3.44-8.21-5.75-11.89-2.34-3.72-5.16-7.02-8.4-9.79-3.26-2.79-7.06-5.02-11.3-6.62-4.25-1.6-9.04-2.41-14.24-2.41s-9.98.81-14.2,2.41c-4.21,1.6-8,3.84-11.27,6.67-3.23,2.8-6.06,6.11-8.4,9.83-2.31,3.68-4.24,7.68-5.75,11.89-1.5,4.19-2.62,8.6-3.33,13.11-.7,4.48-1.09,8.97-1.15,13.39v13.81c.06,4.39.46,8.88,1.19,13.33.73,4.47,1.87,8.86,3.37,13.05,1.51,4.21,3.46,8.21,5.8,11.9,2.36,3.72,5.2,7.01,8.44,9.79,3.26,2.79,7.05,5.02,11.26,6.62,4.22,1.6,9,2.41,14.2,2.41s9.98-.81,14.2-2.41c4.21-1.6,8-3.82,11.26-6.62,3.24-2.78,6.07-6.06,8.4-9.75,2.31-3.65,4.23-7.64,5.72-11.86,1.47-4.19,2.58-8.59,3.28-13.09.7-4.48,1.09-8.97,1.15-13.38v-13.81c-.06-4.39-.44-8.9-1.15-13.4ZM434.47,249.65v13.93c-.05,2.8-.23,5.78-.53,8.87-.29,3.03-.83,6.07-1.6,9.03-.77,2.94-1.79,5.79-3.03,8.46-1.21,2.59-2.74,4.91-4.55,6.88-1.78,1.93-3.94,3.49-6.43,4.65-2.46,1.14-5.37,1.72-8.66,1.72s-6.19-.58-8.61-1.72c-2.47-1.16-4.64-2.73-6.44-4.66-1.84-1.97-3.4-4.29-4.63-6.92-1.27-2.7-2.32-5.57-3.12-8.51-.8-2.96-1.38-6-1.73-9.04-.35-3.08-.56-6.03-.61-8.74v-13.91c.05-2.74.26-5.68.61-8.73.35-3.02.92-6.05,1.69-9.02.76-2.93,1.8-5.77,3.07-8.45,1.23-2.6,2.79-4.91,4.63-6.88,1.81-1.93,3.98-3.5,6.44-4.66,2.43-1.14,5.3-1.72,8.53-1.72s6.19.57,8.63,1.68c2.46,1.13,4.62,2.68,6.43,4.61,1.84,1.97,3.4,4.29,4.63,6.88,1.27,2.67,2.3,5.51,3.07,8.45.77,2.97,1.33,6,1.65,9,.32,3.05.52,6.02.57,8.8Z"/>
  </g>
</svg>